<?xml version="1.0" encoding="utf-8"?>
<!-- Generator: Adobe Illustrator 17.1.0, SVG Export Plug-In . SVG Version: 6.00 Build 0)  -->
<!DOCTYPE svg PUBLIC "-//W3C//DTD SVG 1.1//EN" "http://www.w3.org/Graphics/SVG/1.1/DTD/svg11.dtd">
<svg version="1.1" xmlns="http://www.w3.org/2000/svg" xmlns:xlink="http://www.w3.org/1999/xlink" x="0px" y="0px"
	 viewBox="0 0 200 200" enable-background="new 0 0 200 200" xml:space="preserve">
<g id="Layer_2">
</g>
<g id="Layer_1">
	<g>
		<path fill="#FFFFFF" d="M143.8,150.2c-4.1,5.3-8.6,10.4-15.2,12.8c-9.4,3.3-19.9-3.9-19.6-13.3c0.3-8.6,7.5-15.6,16-15.6
			c1.6,0,3.3,0.1,4.9-0.1c0.7-0.1,1.7-0.5,1.9-1.1c0.2-0.5-0.2-1.6-0.7-2.1c-2.7-3-6.3-3.8-9.9-2.5c-2.9,1-5.5,2.6-8.1,4.2
			c-2.3,1.4-5.2,0.5-5.8-2.2c-1.1-4.7,1.8-10.8,6.2-13.2c1.1-0.6,2.2-1,3.3-1.5c2.1-1,2.2-2.3,0.3-3.6c-1.4-1-3-1.9-4.5-2.9
			c-5.1-3.5-7.5-11.9-4.9-17.5c1.2-2.8,3.6-4.4,6.3-5.1c3.7-0.9,7.6-1.4,11.5-1.8c4.6-0.5,9.3-0.5,13.9-0.9c1.8-0.2,3.6-0.9,5.2-1.7
			c0.9-0.4,1.6-1.5,2-2.4c0.2-0.6-0.1-1.6-0.6-2.1c-0.3-0.3-1.3,0.1-1.9,0.4c-1.4,0.5-2.8,1.3-4.2,1.4c-6.5,0.4-12.9,0.8-19.4,0.9
			c-2.7,0-5.2-1.3-6.9-3.5c-3.9-5-5-10.7-3.9-16.8c0.4-2.5,2.1-4,4.1-5.4c0.9-0.6,2.2-2.1,1.9-2.6c-0.7-1.6-2.4-1.6-3.9-1.1
			c-2.4,0.7-4,2.3-5.1,4.5c-3.2,6.4-2.5,12.9,0.5,19.1c1.3,2.7,3.4,5,5.2,7.5c0,0-0.2,0.2-0.4,0.3c-7.7,3.4-10.5,8.2-9.7,16.5
			c0.5,5.8,2.1,11.1,6.2,14.7c-2,3.3-4.3,6.3-5.6,9.6c-2.7,6.5-1.1,11.2,4.4,15.1c-0.9,3-2.1,5.8-2.7,8.8c-0.9,3.9-0.3,7.7,1.3,11.4
			c0.3,0.7,0.2,1.9-0.2,2.5c-1.4,2-3.5,2.4-5.8,2c-2.4-0.4-4.3-1.7-5.6-3.8c-0.2-0.3-0.1-0.9,0.1-1.3c2.7-6.4,1.6-12.6-1.5-18.5
			c-0.1-0.2-0.2-0.5-0.3-0.7c0.1-0.2,0.1-0.4,0.2-0.4c5.1-3.4,6.6-7.4,5-13.5c-1-3.6-2.3-5.7-6.6-10.7c5.6-5.5,7.1-12.4,6.5-19.9
			c-0.4-5.1-3.1-8.8-7.7-11c-0.8-0.4-1.7-0.8-2.8-1.3c3.9-3.2,6.2-7.1,7.4-11.7c1.1-4.5,1.4-9.1-0.7-13.4c-0.9-1.9-2.5-3.5-4-5
			c-0.7-0.7-2.2-0.9-3.2-0.9c-0.9,0.1-1.7,0.9-2.6,1.3c0.5,0.7,0.8,1.6,1.5,2c4.6,2.4,5.5,6.5,5.2,11.1c-0.2,3.7-1.2,7.1-3.3,10.2
			c-2.3,3.4-5.5,5.1-9.7,4.8c-5.7-0.4-11.5-0.4-17.2-0.8c-1.7-0.1-3.2-1.1-4.9-1.7c-0.5-0.2-1.4-0.4-1.7-0.2
			c-0.4,0.5-0.8,1.3-0.7,1.9c0.3,2,2,3,3.7,3.4c4,0.7,8.1,1.3,12.1,1.7c4.3,0.4,8.6,0.6,12.9,0.8c0.7,0.1,1.5,0.3,2.2,0.5
			c7,1.8,9.5,5.8,8.9,12.9c-0.4,5.2-2.7,8.9-7.2,11.3c-1.1,0.6-2.2,1.3-3.3,2.1c-1.5,1.2-1.4,2.4,0.3,3.3c1.1,0.6,2.3,1,3.4,1.5
			c4.5,2.3,7.4,8.2,6.5,13.1c-0.6,3-3.6,4.2-6,2.4c-3.8-2.8-7.8-5.3-12.8-4.3c-1.9,0.4-3.6,1.8-5.2,2.9c-0.5,0.3-0.9,1.5-0.6,1.9
			c0.3,0.6,1.2,1.1,1.9,1.2c1.7,0.2,3.4,0.1,5.1,0.1c8.9,0,16.5,8.1,15.9,16.9c-0.5,8-9.8,14.5-18,12.4c-7.6-1.9-12.4-7.5-17.3-13.8
			c6.8,0.5,13.1,0.2,19.1,2.3c2.5,0.9,2.6,1.9,0.6,3.7c-0.4,0.4-0.9,1.1-0.7,1.5c0.1,0.4,0.9,0.9,1.4,0.9c1.4,0,2.9,0,4.2-0.4
			c2.6-0.8,3.4-3.2,2.1-5.6c-1.5-2.8-3.9-4.8-7-5.5c-2.9-0.7-5.9-1-8.9-1.3c-5.3-0.5-10.6-0.8-15.9-1.3c-1.4-0.1-2.8-0.6-4.1-1.1
			c-3.5-1.4-4.7-4.2-3.5-8c2.6,0.6,5.1,1.4,7.7,1.7c4.3,0.6,8.1-0.6,11.4-3.4c1.9-1.6,3-3.6,2.6-6.1c-0.2-1.5-1-1.9-2.3-1
			c-1.4,1.1-2.7,2.3-4.1,3.4c-4.7,3.4-9.3,2.2-13.9-0.2c-3.9-2.1-6.2-5.4-5.6-10c0.6-4.5,3.2-7.7,6.9-9.9c1.6,1.2,3,2.4,4.5,3.3
			c0.6,0.3,2.2,0,2.4-0.4c0.3-0.7,0.2-1.9-0.2-2.7c-0.4-0.7-1.3-1.1-2-1.7c-2-2-2.7-4.5-1.7-7.1c0.8-2.3,1.9-3.2,4.4-3.1
			c3.5,0.2,7.1-0.1,10.6,0.1c2,0.1,4.1,0.5,5.9,1.3c2.9,1.3,4.4,4.4,4,7.2c-0.4,2.9-2.5,5-5.7,5.7c-1.1,0.2-2.2,0.1-3.2,0.3
			c-0.5,0.1-1.3,0.3-1.5,0.7c-0.2,0.4,0.2,1.2,0.5,1.6c2.3,2.8,6.2,3.5,9.5,1.9c8.4-4.1,9.4-15.5,1.8-20.9c-4-2.9-8.6-3.6-13.4-3.6
			c-3.2-0.1-6.4,0.1-9.6-0.1c-3.4-0.2-6.4-1.5-8.9-3.8c-3-2.8-3.7-6.5-1.9-10.3c2.3-4.7,6.9-7.4,12.3-6.7c3.8,0.5,7.4,1.7,11.2,2.3
			c3.8,0.6,7.6,1.1,11.3,1.1c4.9-0.1,8.1-2.8,9.4-7.2c1.5-5,0.2-9.3-3.8-12.2c-5.1-3.7-11-4.5-17.2-4c-2,0.2-4,0.7-6,1.2
			c-1.3,0.3-2.2,1.3-1.9,2.7c0.3,1.4,1.6,1.2,2.7,1.2c4.8,0.2,9.5,0.3,14.3,0.7c2.5,0.2,4.6,1.7,6.1,3.8c1.2,1.6,1.9,3.4,0.9,5.4
			c-0.9,2-2.6,3.3-4.9,3.2c-2.8-0.1-5.7-0.6-8.5-1.1c-4.7-0.8-9.3-2-14.1-2.6c-3.6-0.5-3.6-0.3-4.6-3.8c-0.9-3.2,0-5.9,2.1-8.3
			c6.2-7.4,16.4-10.1,25.4-6.7c2.1,0.8,4.3,1.7,6.9,0.6c-1.3-3.4-4-5-6.9-6.1c-2.9-1-6-1.5-9.2-2.3c1.7-2.6,3.9-4.7,7.1-5.4
			c3.9-0.8,7.6-0.1,11,2c3.7,2.3,4.8,5.9,3.2,9.9c-0.1,0.3-0.4,0.6-0.4,0.9c0,0.6,0,1.5,0.3,1.6c0.5,0.2,1.3,0.2,1.8-0.1
			c3.3-1.9,4.5-5.6,3.2-9.2c-0.8-2.2-0.5-3.1,1.6-4.1c0.9-0.4,1.9-0.7,2.9-0.9c3.3-0.6,7.9,0.4,10.6,2.1c-0.6,1.6-1.3,3.1-1.6,4.8
			c-0.6,2.8,1.2,6.3,3.9,7.5c0.4,0.2,1.2,0.2,1.5,0c0.3-0.3,0.4-0.9,0.4-1.4c0-0.2-0.1-0.4-0.2-0.6c-2.8-5.5,0.4-10.2,5.8-11.9
			c5.2-1.7,10.1-1.5,14,3.1c0.5,0.5,0.9,1.2,1.5,2c-6.6,0.6-12.7,1.5-16.3,7.5c0,0.3,0.1,0.6,0.1,0.9c1.1,0,2.3,0.2,3.4,0
			c1.7-0.4,3.3-0.9,4.9-1.6c3.2-1.2,6.4-1.5,9.6-0.7c5,1.2,9.4,3.6,13.2,7.1c3.7,3.5,4.3,7.5,2.1,12.1c-0.2,0.4-0.8,0.8-1.2,0.8
			c-6.5-0.3-12.5,2.2-18.7,3.2c-2.1,0.3-4.2,0.6-6.3,0.6c-2.2,0-3.9-1.1-4.9-3.1c-1-1.9-0.3-3.7,0.9-5.4c1.5-2.1,3.6-3.6,6.1-3.8
			c4.7-0.4,9.4-0.5,14.1-0.7c1.2-0.1,2.7,0.4,3-1.4c0.3-1.6-0.9-2.3-2.2-2.7c-7.4-2.1-14.6-1.8-21.4,2c-4.9,2.7-6.7,7.2-5.4,12.5
			c1.2,4.7,4.3,7.4,9.2,7.9c5.1,0.5,10-0.6,14.9-1.9c3.7-1,7.4-2.1,11.3-1.5c5,0.8,8.1,3.8,9.5,8.5c0.9,3,0.1,5.7-2.1,7.9
			c-3.4,3.4-7.6,4.5-12.3,4.5c-4.4,0-8.9,0-13.2,0.7c-2.8,0.5-5.5,2.1-7.8,3.7c-3.7,2.5-4.8,6.4-3.9,10.7c0.9,4.5,3.4,8.1,7.8,9.8
			c3,1.1,6.6,0,8.5-2.4c0.3-0.4,0.5-1.1,0.4-1.6c-0.1-0.3-0.9-0.5-1.3-0.6c-1.4-0.2-2.9-0.1-4.2-0.6c-5.2-1.6-6.6-7.9-2.5-11.4
			c1.7-1.4,4.1-2.3,6.3-2.5c4.4-0.4,8.9-0.2,13.3-0.1c0.6,0,1.3,0.4,1.7,0.9c2.5,2.6,2.2,6.7-0.5,9.4c-0.2,0.2-0.4,0.4-0.6,0.5
			c-1.4,1-3,2.1-1.5,3.9c1.5,1.8,2.8,0.1,4-0.7c1-0.6,1.7-1.5,2.7-2.5c4.1,2.7,7.1,6.2,7.1,11.4c0,4.8-3,7.6-7,9.4
			c-5.2,2.4-10.2,2.3-14.4-2.1c-0.5-0.5-1-1-1.6-1.3c-0.6-0.4-1.6-0.9-1.9-0.7c-0.5,0.4-0.9,1.3-0.9,2.1c-0.2,2.7,1.3,4.5,3.3,6
			c5,3.6,10.4,3.6,16,1.7c0.6-0.2,1.3-0.5,1.9-0.7c0.1,0,0.1,0,0.2,0c1.7,3,0.6,6.8-3,7.9c-3.6,1.1-7.4,1.7-11.2,2.1
			c-4.7,0.5-9.4,0.5-14.1,0.9c-4,0.3-7.6,1.8-10.1,5.1c-1.7,2.2-1.9,4.1-0.6,5.6c1.3,1.6,5.1,2.4,6.8,1.5c1.3-0.7,0.9-1.4,0-2.2
			c-2.1-1.8-1.9-3,0.8-3.8c2.5-0.7,5-1.2,7.6-1.5c3.5-0.4,7-0.5,10.6-0.7C143.6,149.8,143.7,150,143.8,150.2z"/>
		<path fill="#FFFFFF" d="M162.8,109.4c-2.3-1.4-4.4-2.7-6.4-4c-0.3-0.2-0.6-0.7-0.7-1.1c-0.5-2.5-0.9-5-1.4-7.7
			c1.1-0.6,2.7-1.4,4.3-2.1c0.3-0.1,0.7-0.1,0.9,0.1C163.8,96.5,165.9,106,162.8,109.4C162.7,109.5,162.6,109.5,162.8,109.4z"/>
		<path fill="#FFFFFF" d="M45.8,96.6c-0.5,2.7-0.9,5.2-1.4,7.6c-0.1,0.4-0.3,0.9-0.6,1.1c-2.1,1.4-4.2,2.6-6.6,4.1
			c-0.4-0.7-1.1-1.6-1.3-2.6c-0.6-4.4,0.4-8.4,3.7-11.6c0.8-0.8,1.6-1,2.7-0.3C43.5,95.8,44.9,96.2,45.8,96.6z"/>
	</g>
</g>
</svg>
