<?xml version="1.0" encoding="utf-8"?>
<!-- Generator: Adobe Illustrator 17.1.0, SVG Export Plug-In . SVG Version: 6.00 Build 0)  -->
<!DOCTYPE svg PUBLIC "-//W3C//DTD SVG 1.1//EN" "http://www.w3.org/Graphics/SVG/1.1/DTD/svg11.dtd">
<svg version="1.1" xmlns="http://www.w3.org/2000/svg" xmlns:xlink="http://www.w3.org/1999/xlink" x="0px" y="0px"
	 viewBox="0 0 400 200" enable-background="new 0 0 400 200" xml:space="preserve">
<g id="Layer_2">
</g>
<g id="Layer_1">
	<g opacity="0.4">
		<g>
			<g>
				<rect x="324.5" y="152.9" fill="#FFFFFF" width="0" height="3"/>
				<rect x="318.4" y="136.5" fill="#FFFFFF" width="3.3" height="0"/>
				
					<rect x="313.2" y="117.9" transform="matrix(0.4162 0.9093 -0.9093 0.4162 291.2832 -215.1172)" fill="#FFFFFF" width="0" height="2.7"/>
				
					<rect x="304" y="102.1" transform="matrix(0.5443 0.8389 -0.8389 0.5443 225.1012 -208.035)" fill="#FFFFFF" width="0" height="2.2"/>
				
					<rect x="292.6" y="87.7" transform="matrix(0.668 0.7442 -0.7442 0.668 163.1044 -188.351)" fill="#FFFFFF" width="0" height="1.9"/>
				
					<rect x="279" y="75.3" transform="matrix(0.7823 0.6228 -0.6228 0.7823 108.1202 -157.2292)" fill="#FFFFFF" width="0" height="1.5"/>
				
					<rect x="263.5" y="65.4" transform="matrix(0.8808 0.4734 -0.4734 0.8808 62.6702 -116.8751)" fill="#FFFFFF" width="0" height="1.2"/>
				
					<rect x="246.5" y="58.2" transform="matrix(0.9458 0.3247 -0.3247 0.9458 32.4268 -76.8477)" fill="#FFFFFF" width="0" height="1"/>
				<rect x="228.5" y="53.7" fill="#FFFFFF" width="0" height="0.9"/>
				<rect x="210.2" y="51.6" fill="#FFFFFF" width="0" height="0.9"/>
				<rect x="191.6" y="51.6" fill="#FFFFFF" width="0" height="0.9"/>
				<rect x="173.2" y="53.7" fill="#FFFFFF" width="0" height="0.9"/>
				
					<rect x="155.3" y="58.2" transform="matrix(0.946 -0.3241 0.3241 0.946 -10.6462 53.5096)" fill="#FFFFFF" width="0" height="1"/>
				
					<rect x="138.3" y="65.4" transform="matrix(0.8808 -0.4735 0.4735 0.8808 -14.7674 73.355)" fill="#FFFFFF" width="0" height="1.2"/>
				
					<rect x="122.7" y="75.3" transform="matrix(0.7841 -0.6206 0.6206 0.7841 -20.6884 92.5911)" fill="#FFFFFF" width="0" height="1.5"/>
				
					<rect x="109.1" y="87.6" transform="matrix(0.6668 -0.7452 0.7452 0.6668 -29.6338 110.8313)" fill="#FFFFFF" width="0" height="1.9"/>
				
					<rect x="97.7" y="102" transform="matrix(0.5459 -0.8379 0.8379 0.5459 -42.0299 128.6957)" fill="#FFFFFF" width="0" height="2.2"/>
				
					<rect x="88.6" y="117.9" transform="matrix(0.4167 -0.909 0.909 0.4167 -56.7186 150.0497)" fill="#FFFFFF" width="0" height="2.7"/>
				
					<rect x="81.7" y="134.8" transform="matrix(0.2941 -0.9558 0.9558 0.2941 -72.719 174.3746)" fill="#FFFFFF" width="0" height="3.3"/>
				<rect x="77" y="152.4" fill="#FFFFFF" width="0" height="4"/>
			</g>
			<g>
				<polygon fill="#FFFFFF" points="315,154.9 315,154.9 318,154.4 318,154.4 				"/>
				<rect x="310.5" y="137.9" fill="#FFFFFF" width="3.3" height="0"/>
				
					<rect x="305.8" y="120.5" transform="matrix(0.4136 0.9105 -0.9105 0.4136 290.2375 -206.9456)" fill="#FFFFFF" width="0" height="2.7"/>
				
					<rect x="297.2" y="105.7" transform="matrix(0.5416 0.8406 -0.8406 0.5416 226.0143 -200.9158)" fill="#FFFFFF" width="0" height="2.2"/>
				
					<rect x="286.6" y="92.3" transform="matrix(0.6666 0.7454 -0.7454 0.6666 165.0046 -182.5589)" fill="#FFFFFF" width="0" height="1.8"/>
				
					<rect x="273.9" y="80.7" transform="matrix(0.7813 0.6242 -0.6242 0.7813 110.7548 -153.1246)" fill="#FFFFFF" width="0" height="1.5"/>
				
					<rect x="259.4" y="71.5" transform="matrix(0.8802 0.4747 -0.4747 0.8802 65.3043 -114.4722)" fill="#FFFFFF" width="0" height="1.2"/>
				
					<rect x="243.5" y="64.8" transform="matrix(0.9454 0.326 -0.326 0.9454 34.5844 -75.815)" fill="#FFFFFF" width="0" height="1"/>
				<rect x="226.7" y="60.5" fill="#FFFFFF" width="0" height="0.9"/>
				<rect x="209.6" y="58.5" fill="#FFFFFF" width="0" height="0.9"/>
				<rect x="192.3" y="58.5" fill="#FFFFFF" width="0" height="0.9"/>
				<rect x="175.1" y="60.5" fill="#FFFFFF" width="0" height="0.9"/>
				
					<rect x="158.3" y="64.7" transform="matrix(0.9459 -0.3245 0.3245 0.9459 -12.5993 54.9086)" fill="#FFFFFF" width="0" height="1"/>
				
					<rect x="142.5" y="71.4" transform="matrix(0.8808 -0.4736 0.4736 0.8808 -17.1276 76.0547)" fill="#FFFFFF" width="0" height="1.2"/>
				
					<rect x="127.9" y="80.7" transform="matrix(0.7836 -0.6212 0.6212 0.7836 -22.8855 97.0839)" fill="#FFFFFF" width="0" height="1.5"/>
				
					<rect x="115.2" y="92.2" transform="matrix(0.6665 -0.7455 0.7455 0.6665 -30.9742 116.9284)" fill="#FFFFFF" width="0" height="1.8"/>
				
					<rect x="104.5" y="105.6" transform="matrix(0.5447 -0.8386 0.8386 0.5447 -41.872 136.237)" fill="#FFFFFF" width="0" height="2.2"/>
				
					<rect x="96" y="120.4" transform="matrix(0.4156 -0.9095 0.9095 0.4156 -54.6076 158.4397)" fill="#FFFFFF" width="0" height="2.7"/>
				
					<rect x="89.6" y="136.1" transform="matrix(0.2922 -0.9564 0.9564 0.2922 -68.3605 183.1792)" fill="#FFFFFF" width="0" height="3.3"/>
				<rect x="83" y="154.6" fill="#FFFFFF" width="4" height="0"/>
			</g>
			<g>
				<polygon fill="#FFFFFF" points="307,155.1 307,155.1 310,154.6 310.1,154.6 				"/>
				<rect x="302.7" y="139.3" fill="#FFFFFF" width="3.3" height="0"/>
				
					<rect x="298.3" y="123" transform="matrix(0.4109 0.9117 -0.9117 0.4109 289.153 -198.7394)" fill="#FFFFFF" width="0" height="2.7"/>
				
					<rect x="290.4" y="109.3" transform="matrix(0.539 0.8423 -0.8423 0.539 226.899 -193.7493)" fill="#FFFFFF" width="0" height="2.2"/>
				
					<rect x="280.5" y="96.8" transform="matrix(0.6652 0.7466 -0.7466 0.6652 166.8971 -176.7374)" fill="#FFFFFF" width="0" height="1.8"/>
				
					<rect x="268.7" y="86.1" transform="matrix(0.7803 0.6255 -0.6255 0.7803 113.391 -148.9931)" fill="#FFFFFF" width="0" height="1.5"/>
				
					<rect x="255.2" y="77.5" transform="matrix(0.8795 0.4759 -0.4759 0.8795 67.9467 -112.0498)" fill="#FFFFFF" width="0" height="1.2"/>
				
					<rect x="240.5" y="71.3" transform="matrix(0.9449 0.3273 -0.3273 0.9449 36.7561 -74.7668)" fill="#FFFFFF" width="0" height="1"/>
				<rect x="224.9" y="67.3" fill="#FFFFFF" width="0" height="0.9"/>
				<rect x="209" y="65.5" fill="#FFFFFF" width="0" height="0.9"/>
				<rect x="192.9" y="65.5" fill="#FFFFFF" width="0" height="0.9"/>
				<rect x="176.9" y="67.3" fill="#FFFFFF" width="0" height="0.9"/>
				
					<rect x="161.4" y="71.2" transform="matrix(0.9458 -0.3248 0.3248 0.9458 -14.5562 56.3106)" fill="#FFFFFF" width="0" height="1"/>
				
					<rect x="146.6" y="77.5" transform="matrix(0.8807 -0.4736 0.4736 0.8807 -19.4882 78.7551)" fill="#FFFFFF" width="0" height="1.2"/>
				
					<rect x="133.1" y="86" transform="matrix(0.7832 -0.6218 0.6218 0.7832 -25.084 101.587)" fill="#FFFFFF" width="0" height="1.5"/>
				
					<rect x="121.3" y="96.7" transform="matrix(0.6662 -0.7457 0.7457 0.6662 -32.3136 123.0307)" fill="#FFFFFF" width="0" height="1.8"/>
				
					<rect x="111.4" y="109.1" transform="matrix(0.5436 -0.8394 0.8394 0.5436 -41.7038 143.7946)" fill="#FFFFFF" width="0" height="2.2"/>
				
					<rect x="103.4" y="122.9" transform="matrix(0.4146 -0.91 0.91 0.4146 -52.485 166.8341)" fill="#FFFFFF" width="0" height="2.7"/>
				
					<rect x="97.4" y="137.5" transform="matrix(0.2902 -0.957 0.957 0.2902 -63.9733 191.996)" fill="#FFFFFF" width="0" height="3.3"/>
				<rect x="91" y="154.8" fill="#FFFFFF" width="4" height="0"/>
			</g>
			<g>
				<polygon fill="#FFFFFF" points="298,155.4 298,155.3 301.5,154.8 301.4,154.8 				"/>
				<rect x="294.8" y="140.7" fill="#FFFFFF" width="3.3" height="0"/>
				
					<rect x="290.9" y="125.6" transform="matrix(0.4082 0.9129 -0.9129 0.4082 288.03 -190.4989)" fill="#FFFFFF" width="0" height="2.7"/>
				
					<rect x="283.6" y="112.9" transform="matrix(0.5363 0.844 -0.844 0.5363 227.7553 -186.5358)" fill="#FFFFFF" width="0" height="2.2"/>
				
					<rect x="274.5" y="101.4" transform="matrix(0.6639 0.7478 -0.7478 0.6639 168.7818 -170.8865)" fill="#FFFFFF" width="0" height="1.8"/>
				
					<rect x="263.6" y="91.5" transform="matrix(0.7792 0.6268 -0.6268 0.7792 116.0285 -144.8347)" fill="#FFFFFF" width="0" height="1.5"/>
				
					<rect x="251.1" y="83.6" transform="matrix(0.8789 0.4771 -0.4771 0.8789 70.5974 -109.6078)" fill="#FFFFFF" width="0" height="1.2"/>
				
					<rect x="237.5" y="77.8" transform="matrix(0.9445 0.3286 -0.3286 0.9445 38.9415 -73.703)" fill="#FFFFFF" width="0" height="1"/>
				<rect x="223.1" y="74.2" fill="#FFFFFF" width="0" height="0.9"/>
				<rect x="208.4" y="72.5" fill="#FFFFFF" width="0" height="0.9"/>
				<rect x="193.5" y="72.5" fill="#FFFFFF" width="0" height="0.9"/>
				<rect x="178.8" y="74.1" fill="#FFFFFF" width="0" height="0.9"/>
				
					<rect x="164.4" y="77.8" transform="matrix(0.9457 -0.3251 0.3251 0.9457 -16.5167 57.7157)" fill="#FFFFFF" width="0" height="1"/>
				
					<rect x="150.8" y="83.5" transform="matrix(0.8807 -0.4737 0.4737 0.8807 -21.8492 81.4562)" fill="#FFFFFF" width="0" height="1.2"/>
				
					<rect x="138.3" y="91.4" transform="matrix(0.7827 -0.6224 0.6224 0.7827 -27.2841 106.1004)" fill="#FFFFFF" width="0" height="1.5"/>
				
					<rect x="127.4" y="101.2" transform="matrix(0.666 -0.746 0.746 0.666 -33.6518 129.1379)" fill="#FFFFFF" width="0" height="1.8"/>
				
					<rect x="118.2" y="112.7" transform="matrix(0.5425 -0.8401 0.8401 0.5425 -41.5256 151.3683)" fill="#FFFFFF" width="0" height="2.2"/>
				
					<rect x="110.8" y="125.4" transform="matrix(0.4136 -0.9105 0.9105 0.4136 -50.3515 175.2326)" fill="#FFFFFF" width="0" height="2.7"/>
				
					<rect x="105.3" y="138.9" transform="matrix(0.2883 -0.9575 0.9575 0.2883 -59.5575 200.825)" fill="#FFFFFF" width="0" height="3.3"/>
				<polygon fill="#FFFFFF" points="104,155.2 104,155.2 99.8,154.6 99.9,154.6 				"/>
			</g>
			<g>
				<polygon fill="#FFFFFF" points="290,155.6 290,155.6 293.5,155 293.4,155 				"/>
				<rect x="287" y="142.1" fill="#FFFFFF" width="3.3" height="0"/>
				
					<rect x="283.5" y="128.1" transform="matrix(0.4056 0.9141 -0.9141 0.4056 286.8684 -182.2246)" fill="#FFFFFF" width="0" height="2.7"/>
				
					<rect x="276.8" y="116.5" transform="matrix(0.5336 0.8457 -0.8457 0.5336 228.5833 -179.2759)" fill="#FFFFFF" width="0" height="2.2"/>
				
					<rect x="268.4" y="106" transform="matrix(0.6625 0.749 -0.749 0.6625 170.6588 -165.0066)" fill="#FFFFFF" width="0" height="1.8"/>
				
					<rect x="258.4" y="96.9" transform="matrix(0.7782 0.628 -0.628 0.7782 118.6674 -140.6497)" fill="#FFFFFF" width="0" height="1.5"/>
				
					<rect x="247" y="89.7" transform="matrix(0.8782 0.4783 -0.4783 0.8782 73.2561 -107.1466)" fill="#FFFFFF" width="0" height="1.2"/>
				
					<rect x="234.5" y="84.4" transform="matrix(0.944 0.3299 -0.3299 0.944 41.1405 -72.6238)" fill="#FFFFFF" width="0" height="1"/>
				<rect x="221.3" y="81" fill="#FFFFFF" width="0" height="0.9"/>
				<rect x="207.8" y="79.5" fill="#FFFFFF" width="0" height="0.9"/>
				<rect x="194.2" y="79.5" fill="#FFFFFF" width="0" height="0.9"/>
				<rect x="180.7" y="81" fill="#FFFFFF" width="0" height="0.9"/>
				
					<rect x="167.5" y="84.3" transform="matrix(0.9455 -0.3255 0.3255 0.9455 -18.4808 59.1238)" fill="#FFFFFF" width="0" height="1"/>
				
					<rect x="154.9" y="89.5" transform="matrix(0.8807 -0.4737 0.4737 0.8807 -24.2106 84.158)" fill="#FFFFFF" width="0" height="1.2"/>
				
					<rect x="143.5" y="96.8" transform="matrix(0.7822 -0.623 0.623 0.7822 -29.4856 110.624)" fill="#FFFFFF" width="0" height="1.5"/>
				
					<rect x="133.4" y="105.8" transform="matrix(0.6657 -0.7462 0.7462 0.6657 -34.9891 135.2501)" fill="#FFFFFF" width="0" height="1.8"/>
				
					<rect x="125" y="116.3" transform="matrix(0.5414 -0.8408 0.8408 0.5414 -41.3375 158.9579)" fill="#FFFFFF" width="0" height="2.2"/>
				
					<rect x="118.3" y="127.9" transform="matrix(0.4126 -0.9109 0.9109 0.4126 -48.2078 183.6351)" fill="#FFFFFF" width="0" height="2.7"/>
				
					<rect x="113.2" y="140.2" transform="matrix(0.2864 -0.9581 0.9581 0.2864 -55.1135 209.6659)" fill="#FFFFFF" width="0" height="3.3"/>
				<rect x="107.8" y="155.1" fill="#FFFFFF" width="4" height="0"/>
			</g>
			<g>
				<polygon fill="#FFFFFF" points="282,155.8 282,155.8 285.5,155.3 285.5,155.3 				"/>
				<rect x="279.1" y="143.5" fill="#FFFFFF" width="3.3" height="0"/>
				
					<rect x="276.1" y="130.7" transform="matrix(0.4029 0.9152 -0.9152 0.4029 285.6685 -173.917)" fill="#FFFFFF" width="0" height="2.7"/>
				
					<rect x="270" y="120.1" transform="matrix(0.5309 0.8474 -0.8474 0.5309 229.3828 -171.9701)" fill="#FFFFFF" width="0" height="2.2"/>
				
					<rect x="262.4" y="110.5" transform="matrix(0.6612 0.7502 -0.7502 0.6612 172.528 -159.0979)" fill="#FFFFFF" width="0" height="1.8"/>
				
					<rect x="253.3" y="102.3" transform="matrix(0.7771 0.6293 -0.6293 0.7771 121.3076 -136.4384)" fill="#FFFFFF" width="0" height="1.5"/>
				
					<rect x="242.9" y="95.7" transform="matrix(0.8776 0.4794 -0.4794 0.8776 75.9229 -104.6661)" fill="#FFFFFF" width="0" height="1.2"/>
				
					<rect x="231.5" y="90.9" transform="matrix(0.9436 0.3312 -0.3312 0.9436 43.3531 -71.5293)" fill="#FFFFFF" width="0" height="1"/>
				<rect x="219.5" y="87.9" fill="#FFFFFF" width="0" height="0.9"/>
				<rect x="207.2" y="86.4" fill="#FFFFFF" width="0" height="0.9"/>
				<rect x="194.8" y="86.4" fill="#FFFFFF" width="0" height="0.9"/>
				<rect x="182.5" y="87.8" fill="#FFFFFF" width="0" height="0.9"/>
				
					<rect x="170.5" y="90.8" transform="matrix(0.9454 -0.3258 0.3258 0.9454 -20.4484 60.5349)" fill="#FFFFFF" width="0" height="1"/>
				
					<rect x="159.1" y="95.6" transform="matrix(0.8806 -0.4738 0.4738 0.8806 -26.5724 86.8605)" fill="#FFFFFF" width="0" height="1.2"/>
				
					<rect x="148.7" y="102.1" transform="matrix(0.7818 -0.6236 0.6236 0.7818 -31.6885 115.1577)" fill="#FFFFFF" width="0" height="1.5"/>
				
					<rect x="139.5" y="110.3" transform="matrix(0.6654 -0.7465 0.7465 0.6654 -36.3253 141.3671)" fill="#FFFFFF" width="0" height="1.8"/>
				
					<rect x="131.9" y="119.8" transform="matrix(0.5403 -0.8415 0.8415 0.5403 -41.1395 166.5632)" fill="#FFFFFF" width="0" height="2.2"/>
				
					<rect x="125.7" y="130.4" transform="matrix(0.4117 -0.9113 0.9113 0.4117 -46.0545 192.0411)" fill="#FFFFFF" width="0" height="2.7"/>
				
					<rect x="121.1" y="141.6" transform="matrix(0.2846 -0.9587 0.9587 0.2846 -50.6414 218.5186)" fill="#FFFFFF" width="0" height="3.2"/>
				<rect x="116" y="155.2" fill="#FFFFFF" width="4" height="0"/>
			</g>
			<g>
				<polygon fill="#FFFFFF" points="274,156 274,156 277.5,155.5 277.6,155.5 				"/>
				<rect x="271.2" y="144.9" fill="#FFFFFF" width="3.3" height="0"/>
				
					<rect x="268.7" y="133.2" transform="matrix(0.4003 0.9164 -0.9164 0.4003 284.4305 -165.5765)" fill="#FFFFFF" width="0" height="2.7"/>
				
					<rect x="263.2" y="123.7" transform="matrix(0.5283 0.8491 -0.8491 0.5283 230.1539 -164.6188)" fill="#FFFFFF" width="0" height="2.2"/>
				
					<rect x="256.3" y="115.1" transform="matrix(0.6598 0.7514 -0.7514 0.6598 174.3894 -153.1608)" fill="#FFFFFF" width="0" height="1.8"/>
				
					<rect x="248.1" y="107.7" transform="matrix(0.7761 0.6306 -0.6306 0.7761 123.9489 -132.2009)" fill="#FFFFFF" width="0" height="1.5"/>
				
					<rect x="238.8" y="101.8" transform="matrix(0.8769 0.4806 -0.4806 0.8769 78.5976 -102.1665)" fill="#FFFFFF" width="0" height="1.2"/>
				
					<rect x="228.5" y="97.4" transform="matrix(0.9431 0.3325 -0.3325 0.9431 45.5791 -70.4195)" fill="#FFFFFF" width="0" height="1"/>
				<rect x="217.7" y="94.7" fill="#FFFFFF" width="0" height="0.9"/>
				<rect x="206.6" y="93.4" fill="#FFFFFF" width="0" height="0.9"/>
				<rect x="195.5" y="93.4" fill="#FFFFFF" width="0" height="0.9"/>
				<rect x="184.4" y="94.6" fill="#FFFFFF" width="0" height="0.9"/>
				
					<rect x="173.5" y="97.3" transform="matrix(0.9453 -0.3261 0.3261 0.9453 -22.4195 61.9489)" fill="#FFFFFF" width="0" height="1"/>
				
					<rect x="163.3" y="101.6" transform="matrix(0.8806 -0.4738 0.4738 0.8806 -28.9346 89.5637)" fill="#FFFFFF" width="0" height="1.2"/>
				
					<rect x="153.9" y="107.5" transform="matrix(0.7813 -0.6241 0.6241 0.7813 -33.8928 119.7013)" fill="#FFFFFF" width="0" height="1.5"/>
				
					<rect x="145.6" y="114.8" transform="matrix(0.6652 -0.7467 0.7467 0.6652 -37.6605 147.489)" fill="#FFFFFF" width="0" height="1.8"/>
				
					<rect x="138.7" y="123.4" transform="matrix(0.5392 -0.8422 0.8422 0.5392 -40.9317 174.1839)" fill="#FFFFFF" width="0" height="2.2"/>
				
					<rect x="133.1" y="132.9" transform="matrix(0.4108 -0.9117 0.9117 0.4108 -43.8922 200.4505)" fill="#FFFFFF" width="0" height="2.6"/>
				
					<rect x="129" y="142.9" transform="matrix(0.2827 -0.9592 0.9592 0.2827 -46.1414 227.3829)" fill="#FFFFFF" width="0" height="3.2"/>
				<rect x="124.2" y="155.4" fill="#FFFFFF" width="4" height="0"/>
			</g>
			<g>
				<polygon fill="#FFFFFF" points="265,156.2 265,156.2 269,155.7 268.9,155.7 				"/>
				<rect x="263.4" y="146.3" fill="#FFFFFF" width="3.3" height="0"/>
				
					<rect x="261.3" y="135.7" transform="matrix(0.3977 0.9175 -0.9175 0.3977 283.1546 -157.2035)" fill="#FFFFFF" width="0" height="2.7"/>
				
					<rect x="256.4" y="127.3" transform="matrix(0.5256 0.8507 -0.8507 0.5256 230.8966 -157.2225)" fill="#FFFFFF" width="0" height="2.2"/>
				
					<rect x="250.3" y="119.7" transform="matrix(0.6585 0.7526 -0.7526 0.6585 176.2429 -147.1953)" fill="#FFFFFF" width="0" height="1.8"/>
				
					<rect x="243" y="113.1" transform="matrix(0.7751 0.6319 -0.6319 0.7751 126.5913 -127.9374)" fill="#FFFFFF" width="0" height="1.5"/>
				
					<rect x="234.7" y="107.8" transform="matrix(0.8763 0.4818 -0.4818 0.8763 81.2802 -99.6479)" fill="#FFFFFF" width="0" height="1.2"/>
				
					<rect x="225.5" y="104" transform="matrix(0.9426 0.3338 -0.3338 0.9426 47.8184 -69.2945)" fill="#FFFFFF" width="0" height="1"/>
				<rect x="215.9" y="101.5" fill="#FFFFFF" width="0" height="0.9"/>
				<rect x="206" y="100.4" fill="#FFFFFF" width="0" height="0.9"/>
				<rect x="196.1" y="100.4" fill="#FFFFFF" width="0" height="0.9"/>
				<rect x="186.2" y="101.5" fill="#FFFFFF" width="0" height="0.9"/>
				
					<rect x="176.6" y="103.8" transform="matrix(0.9452 -0.3265 0.3265 0.9452 -24.3941 63.3659)" fill="#FFFFFF" width="0" height="1"/>
				
					<rect x="167.4" y="107.6" transform="matrix(0.8806 -0.4739 0.4739 0.8806 -31.2972 92.2675)" fill="#FFFFFF" width="0" height="1.2"/>
				
					<rect x="159" y="112.8" transform="matrix(0.7808 -0.6247 0.6247 0.7808 -36.0985 124.2548)" fill="#FFFFFF" width="0" height="1.5"/>
				
					<rect x="151.7" y="119.4" transform="matrix(0.6649 -0.7469 0.7469 0.6649 -38.9946 153.6156)" fill="#FFFFFF" width="0" height="1.8"/>
				
					<rect x="145.5" y="127" transform="matrix(0.5381 -0.8429 0.8429 0.5381 -40.7142 181.8198)" fill="#FFFFFF" width="0" height="2.2"/>
				
					<rect x="140.6" y="135.4" transform="matrix(0.41 -0.9121 0.9121 0.41 -41.7214 208.8631)" fill="#FFFFFF" width="0" height="2.6"/>
				
					<rect x="136.8" y="144.3" transform="matrix(0.2808 -0.9598 0.9598 0.2808 -41.6138 236.2585)" fill="#FFFFFF" width="0" height="3.2"/>
				<rect x="132.3" y="155.5" fill="#FFFFFF" width="4" height="0"/>
			</g>
			<g>
				<polygon fill="#FFFFFF" points="257,156.4 257,156.4 261,155.9 260.9,155.9 				"/>
				<rect x="255.5" y="147.7" fill="#FFFFFF" width="3.3" height="0"/>
				
					<rect x="253.9" y="138.3" transform="matrix(0.3951 0.9186 -0.9186 0.3951 281.8409 -148.7985)" fill="#FFFFFF" width="0" height="2.7"/>
				
					<rect x="249.6" y="130.9" transform="matrix(0.523 0.8524 -0.8524 0.523 231.6108 -149.7816)" fill="#FFFFFF" width="0" height="2.2"/>
				
					<rect x="244.2" y="124.3" transform="matrix(0.6571 0.7538 -0.7538 0.6571 178.0886 -141.2018)" fill="#FFFFFF" width="0" height="1.8"/>
				
					<rect x="237.9" y="118.5" transform="matrix(0.7741 0.6331 -0.6331 0.7741 129.2348 -123.6483)" fill="#FFFFFF" width="0" height="1.5"/>
				
					<rect x="230.5" y="113.9" transform="matrix(0.8756 0.483 -0.483 0.8756 83.9704 -97.1106)" fill="#FFFFFF" width="0" height="1.2"/>
				
					<rect x="222.6" y="110.5" transform="matrix(0.9422 0.3351 -0.3351 0.9422 50.0707 -68.1545)" fill="#FFFFFF" width="0" height="1"/>
				<rect x="214.1" y="108.4" fill="#FFFFFF" width="0" height="0.9"/>
				<rect x="205.5" y="107.4" fill="#FFFFFF" width="0" height="0.9"/>
				<rect x="196.7" y="107.3" fill="#FFFFFF" width="0" height="0.9"/>
				<rect x="188.1" y="108.3" fill="#FFFFFF" width="0" height="0.9"/>
				
					<rect x="179.6" y="110.4" transform="matrix(0.9451 -0.3268 0.3268 0.9451 -26.3721 64.7858)" fill="#FFFFFF" width="0" height="1"/>
				
					<rect x="171.6" y="113.7" transform="matrix(0.8806 -0.4739 0.4739 0.8806 -33.6601 94.972)" fill="#FFFFFF" width="0" height="1.2"/>
				
					<rect x="164.2" y="118.2" transform="matrix(0.7804 -0.6253 0.6253 0.7804 -38.3055 128.818)" fill="#FFFFFF" width="0" height="1.5"/>
				
					<rect x="157.8" y="123.9" transform="matrix(0.6646 -0.7472 0.7472 0.6646 -40.3278 159.7468)" fill="#FFFFFF" width="0" height="1.8"/>
				
					<rect x="152.4" y="130.5" transform="matrix(0.537 -0.8436 0.8436 0.537 -40.4872 189.4707)" fill="#FFFFFF" width="0" height="2.2"/>
				
					<rect x="148" y="137.9" transform="matrix(0.4092 -0.9125 0.9125 0.4092 -39.5426 217.2787)" fill="#FFFFFF" width="0" height="2.6"/>
				
					<rect x="144.7" y="145.6" transform="matrix(0.279 -0.9603 0.9603 0.279 -37.0587 245.1454)" fill="#FFFFFF" width="0" height="3.2"/>
				<rect x="140.5" y="155.7" fill="#FFFFFF" width="4" height="0"/>
			</g>
			<g>
				<polygon fill="#FFFFFF" points="249,156.7 249,156.6 253,156.1 253,156.1 				"/>
				<rect x="247.6" y="149.1" fill="#FFFFFF" width="3.3" height="0"/>
				
					<rect x="246.5" y="140.8" transform="matrix(0.3925 0.9197 -0.9197 0.3925 280.4895 -140.3619)" fill="#FFFFFF" width="0" height="2.7"/>
				
					<rect x="242.8" y="134.5" transform="matrix(0.5203 0.854 -0.854 0.5203 232.2965 -142.2967)" fill="#FFFFFF" width="0" height="2.2"/>
				
					<rect x="238.2" y="128.8" transform="matrix(0.6558 0.7549 -0.7549 0.6558 179.9265 -135.1806)" fill="#FFFFFF" width="0" height="1.8"/>
				
					<rect x="232.7" y="123.9" transform="matrix(0.7731 0.6343 -0.6343 0.7731 131.8792 -119.3337)" fill="#FFFFFF" width="0" height="1.5"/>
				
					<rect x="226.4" y="119.9" transform="matrix(0.875 0.4841 -0.4841 0.875 86.6683 -94.5545)" fill="#FFFFFF" width="0" height="1.2"/>
				
					<rect x="219.6" y="117.1" transform="matrix(0.9417 0.3363 -0.3363 0.9417 52.3361 -66.9994)" fill="#FFFFFF" width="0" height="1"/>
				<rect x="212.3" y="115.2" fill="#FFFFFF" width="0" height="0.9"/>
				<rect x="204.9" y="114.4" fill="#FFFFFF" width="0" height="0.9"/>
				<rect x="197.4" y="114.3" fill="#FFFFFF" width="0" height="0.9"/>
				<rect x="189.9" y="115.1" fill="#FFFFFF" width="0" height="0.9"/>
				
					<rect x="182.7" y="116.9" transform="matrix(0.945 -0.3271 0.3271 0.945 -28.3535 66.2085)" fill="#FFFFFF" width="0" height="1"/>
				
					<rect x="175.7" y="119.7" transform="matrix(0.8805 -0.474 0.474 0.8805 -36.0235 97.6771)" fill="#FFFFFF" width="0" height="1.2"/>
				
					<rect x="169.4" y="123.6" transform="matrix(0.7799 -0.6259 0.6259 0.7799 -40.5139 133.3908)" fill="#FFFFFF" width="0" height="1.5"/>
				
					<rect x="163.9" y="128.4" transform="matrix(0.6644 -0.7474 0.7474 0.6644 -41.6599 165.8828)" fill="#FFFFFF" width="0" height="1.8"/>
				
					<rect x="159.2" y="134.1" transform="matrix(0.5359 -0.8443 0.8443 0.5359 -40.2506 197.1364)" fill="#FFFFFF" width="0" height="2.2"/>
				
					<rect x="155.4" y="140.4" transform="matrix(0.4084 -0.9128 0.9128 0.4084 -37.3563 225.6971)" fill="#FFFFFF" width="0" height="2.6"/>
				
					<rect x="152.6" y="147" transform="matrix(0.2771 -0.9608 0.9608 0.2771 -32.4764 254.0433)" fill="#FFFFFF" width="0" height="3.2"/>
				<rect x="148.7" y="155.9" fill="#FFFFFF" width="4" height="0"/>
			</g>
		</g>
	</g>
	<g>
		<g>
			<path fill="#FFFFFF" d="M327,155c0,0,0-0.5,0.1-1c0-0.5,0.1-1,0.1-1l20.8-3.4c0,0,0.2,0.5,0.4,0.9c0.2,0.5,0.4,0.9,0.4,0.9
				L327,155z"/>
			<path fill="#FFFFFF" d="M326,137.3c0,0-0.2-1-0.4-2c-0.2-1-0.4-2-0.4-2l12.9-4.7c0,0,0.5,0.9,0.9,1.8c0.5,0.9,1,1.8,1,1.8
				L326,137.3z"/>
			<polygon fill="#FFFFFF" points="320.2,117.7 318.5,114 326.8,109.5 329,112.9 			"/>
			<polygon fill="#FFFFFF" points="310.4,99.7 308,96.4 313.7,92 316.3,95.1 			"/>
			<path fill="#FFFFFF" d="M294,87.2c0,0-0.1,0-0.3,0.1c-0.2,0-0.5,0.1-0.8,0.2c-0.3,0.1-0.7,0.1-1,0.2c-0.4,0-0.7,0-1,0
				c-0.6-0.1-1.1-0.3-1.3-0.6c-0.3-0.3-0.4-0.5-0.4-0.5L303.4,71c0,0,0.2,0.1,0.5,0.4c0.3,0.2,0.6,0.7,0.7,1.3
				c0.1,0.3,0.1,0.6,0.1,1c0,0.4,0,0.7-0.1,1c0,0.3-0.1,0.6-0.1,0.8c0,0.2-0.1,0.3-0.1,0.3L294,87.2z"/>
			<polygon fill="#FFFFFF" points="281.7,69.9 278.4,67.6 280.1,64.9 283.6,66.9 			"/>
			<polygon fill="#FFFFFF" points="263.7,59.2 260,57.6 260.7,56 264.4,57.5 			"/>
			<polygon fill="#FFFFFF" points="243.7,52.5 239.8,51.7 240.4,49.2 244.3,50.3 			"/>
			<polygon fill="#FFFFFF" points="222.9,49.9 218.9,49.7 219.5,44.4 223.5,45.1 			"/>
			<path fill="#FFFFFF" d="M202,55.6c0,0-0.3,0.2-0.6,0.5c-0.4,0.2-0.9,0.2-1.4,0.2l0-0.2h0h0h0c-0.1,0,0.1,0,0.1,0h0l0,0.2
				l-0.1,0.1l-0.2,0.1c-0.1,0-0.2,0-0.4,0c-0.2,0-0.5,0-0.6-0.1c-0.4-0.1-0.6-0.1-0.6-0.1L198,36.1c0,0,0.3-0.1,0.6-0.2
				c0.2,0,0.4-0.1,0.6-0.1c0.1,0,0.2,0,0.4,0l0.5,0c0.5,0,1,0.2,1.4,0.4c0.4,0.2,0.6,0.5,0.6,0.5L202,55.6z"/>
			<polygon fill="#FFFFFF" points="181.2,50.2 177.2,50.4 176.6,44.6 180.5,43.9 			"/>
			<polygon fill="#FFFFFF" points="160.5,52.4 156.5,53.2 155.6,49.6 159.5,48.5 			"/>
			<path fill="#FFFFFF" d="M140.4,58.4c0,0-0.9,0.4-1.8,0.8c-0.9,0.4-1.8,0.8-1.8,0.8l-1.4-3.4c0,0,0.9-0.4,1.9-0.7
				c0.9-0.4,1.9-0.7,1.9-0.7L140.4,58.4z"/>
			<polygon fill="#FFFFFF" points="122.3,68.5 119,70.9 115.8,65.8 119.3,63.9 			"/>
			<path fill="#FFFFFF" d="M111.3,87c0,0-0.8,0.6-1.9,1c-0.5,0.2-1.1,0.3-1.6,0.3c-0.5,0.1-0.8,0.1-0.8,0.1L94.5,74.6
				c0,0,0-0.3,0.1-0.8c0.1-0.5,0.2-1,0.5-1.6c0.4-1.1,1.1-1.8,1.1-1.8L111.3,87z"/>
			<polygon fill="#FFFFFF" points="92.4,96.6 90,99.9 83.4,94.8 86,91.6 			"/>
			<path fill="#FFFFFF" d="M81.7,114.1c0,0-0.4,0.9-0.9,1.8c-0.4,0.9-0.8,1.9-0.8,1.9l-9.1-5c0,0,0.6-0.8,1.1-1.7
				c0.5-0.9,1.1-1.7,1.1-1.7L81.7,114.1z"/>
			<polygon fill="#FFFFFF" points="74.9,133.2 74,137.2 60,132.2 61.9,128.5 			"/>
			<path fill="#FFFFFF" d="M72.9,153c0,0,0,0.5,0.1,1c0,0.5,0.1,1,0.1,1l-21.7-3.6c0,0,0.2-0.5,0.4-0.9c0.2-0.5,0.4-0.9,0.4-0.9
				L72.9,153z"/>
		</g>
	</g>
</g>
</svg>
