<?xml version="1.0" encoding="utf-8"?>
<!-- Generator: Adobe Illustrator 17.1.0, SVG Export Plug-In . SVG Version: 6.00 Build 0)  -->
<!DOCTYPE svg PUBLIC "-//W3C//DTD SVG 1.1//EN" "http://www.w3.org/Graphics/SVG/1.1/DTD/svg11.dtd">
<svg version="1.1" xmlns="http://www.w3.org/2000/svg" xmlns:xlink="http://www.w3.org/1999/xlink" x="0px" y="0px"
	 viewBox="0 0 200 200" enable-background="new 0 0 200 200" xml:space="preserve">
<g id="Layer_2">
</g>
<g id="Layer_1">
	<g>
		<circle cx="100" cy="98.5" r="48.2"/>
		<g>
			<path fill="#FF22B8" d="M100,75.7c-9.3,0-16.5-5-16.5-11.4c0-5.4,11.2-18,14.7-21.7l1.8-2l1.8,2c3.4,3.7,14.7,16.3,14.7,21.7
				C116.5,70.7,109.3,75.7,100,75.7z"/>
			<path d="M100,44.3c0,0,14,15.1,14,20c0,4.9-6.3,8.8-14,8.8s-14-4-14-8.8C86,59.5,100,44.3,100,44.3 M100,36.9l-3.7,4
				c-0.1,0.2-3.7,4-7.3,8.5c-7.1,9-8.1,12.6-8.1,15c0,7.8,8.4,13.9,19.1,13.9s19.1-6.1,19.1-13.9c0-2.4-1-6-8.1-15
				c-3.6-4.5-7.1-8.3-7.3-8.5L100,36.9L100,36.9z"/>
		</g>
		<circle fill="#FF22B8" cx="100" cy="98.5" r="42.1"/>
		<circle opacity="0.8" cx="100" cy="98.5" r="34.7"/>
		<circle fill="#FF22B8" cx="100" cy="98.5" r="10.4"/>
	</g>
	<g>
		<rect x="98" y="54" fill="#FF22B8" width="4" height="44"/>
	</g>
</g>
</svg>
