<?xml version="1.0" encoding="utf-8"?>
<!-- Generator: Adobe Illustrator 17.1.0, SVG Export Plug-In . SVG Version: 6.00 Build 0)  -->
<!DOCTYPE svg PUBLIC "-//W3C//DTD SVG 1.1//EN" "http://www.w3.org/Graphics/SVG/1.1/DTD/svg11.dtd">
<svg version="1.1" id="Layer_1" xmlns="http://www.w3.org/2000/svg" xmlns:xlink="http://www.w3.org/1999/xlink" x="0px" y="0px"
	 viewBox="206 296 200 200" enable-background="new 206 296 200 200" xml:space="preserve">
<g id="Layer_2">
</g>
<g id="Layer_1_1_">
	<g>
		<circle cx="306" cy="398" r="65"/>
		<g>
			<path fill="#FFFF24" d="M306,367.2c-12.6,0-22.2-6.7-22.2-15.4c0-7.3,15.1-24.3,19.8-29.2l2.4-2.7l2.4,2.7
				c4.6,5,19.8,22,19.8,29.2C328.2,360.5,318.6,367.2,306,367.2z"/>
			<path d="M306,325c0,0,18.9,20.4,18.9,27s-8.5,11.8-18.9,11.8s-18.9-5.4-18.9-11.8C287.1,345.4,306,325,306,325 M306,315l-5,5.4
				c-0.1,0.3-5,5.4-9.8,11.5c-9.6,12.1-10.9,17-10.9,20.2c0,10.5,11.3,18.7,25.7,18.7c14.4,0,25.7-8.2,25.7-18.7
				c0-3.2-1.4-8.1-10.9-20.2c-4.8-6.1-9.6-11.2-9.8-11.5L306,315L306,315z"/>
		</g>
		<circle fill="#FFFF27" cx="306" cy="398" r="56.7"/>
		<circle opacity="0.8" enable-background="new    " cx="306" cy="398" r="46.8"/>
		<circle fill="#FFF924" cx="306" cy="398" r="14"/>
	</g>
	<g>
		<rect x="303.3" y="338" fill="#FFFF27" width="5.4" height="59.3"/>
	</g>
</g>
</svg>
