<?xml version="1.0" encoding="utf-8"?>
<!-- Generator: Adobe Illustrator 17.1.0, SVG Export Plug-In . SVG Version: 6.00 Build 0)  -->
<!DOCTYPE svg PUBLIC "-//W3C//DTD SVG 1.1//EN" "http://www.w3.org/Graphics/SVG/1.1/DTD/svg11.dtd">
<svg version="1.1" xmlns="http://www.w3.org/2000/svg" xmlns:xlink="http://www.w3.org/1999/xlink" x="0px" y="0px"
	 viewBox="0 0 200 200" enable-background="new 0 0 200 200" xml:space="preserve">
<g id="Layer_2">
</g>
<g id="Layer_1">
	<g>
		<g>
			<g>
				<g>
					<path fill="#FFFFFF" d="M151.5,136.7l-6.4-4.8c0.7-1,1.5-2,2.1-3.1l6.7,4.3C153.2,134.3,152.4,135.5,151.5,136.7z M48.3,136.6
						c-0.8-1.1-1.7-2.3-2.4-3.5l6.7-4.3c0.7,1,1.4,2.1,2.1,3.1L48.3,136.6z M161.2,117.6l-7.6-2.4c0.4-1.2,0.7-2.4,1-3.6l7.8,1.9
						C162,114.9,161.6,116.3,161.2,117.6z M38.6,117.5c-0.4-1.4-0.8-2.8-1.1-4.1l7.8-1.8c0.3,1.2,0.6,2.4,1,3.6L38.6,117.5z
						 M156.1,96.7c0-1.3-0.1-2.5-0.2-3.7l8-0.8c0.1,1.4,0.2,2.9,0.3,4.3L156.1,96.7z M43.8,96.6l-8-0.3c0-1.4,0.1-2.9,0.3-4.3l8,0.8
						C43.9,94.1,43.8,95.3,43.8,96.6z M152.4,78.4c-0.4-1.2-0.9-2.3-1.5-3.5l7.3-3.4c0.6,1.3,1.2,2.6,1.7,4L152.4,78.4z M47.5,78.3
						L40,75.4c0.5-1.3,1.1-2.7,1.7-3.9l7.3,3.4C48.4,76,47.9,77.1,47.5,78.3z M142.9,62.3c-0.8-1-1.6-1.9-2.5-2.8l5.8-5.6
						c1,1,2,2.1,2.9,3.2L142.9,62.3z M57,62.2L50.9,57c0.9-1.1,1.9-2.2,2.9-3.2l5.7,5.6C58.7,60.3,57.9,61.3,57,62.2z M128.6,50.2
						c-1.1-0.6-2.2-1.2-3.3-1.8l3.6-7.1c1.3,0.6,2.5,1.3,3.8,2.1L128.6,50.2z M71.3,50.1l-4.1-6.9c1.2-0.7,2.5-1.4,3.8-2.1l3.6,7.1
						C73.5,48.9,72.4,49.5,71.3,50.1z M111.2,43.5c-1.2-0.2-2.5-0.5-3.7-0.6l1.1-7.9c1.4,0.2,2.8,0.4,4.2,0.7L111.2,43.5z
						 M88.8,43.4l-1.6-7.8c1.4-0.3,2.8-0.5,4.2-0.7l1,7.9C91.2,43,90,43.2,88.8,43.4z"/>
				</g>
			</g>
		</g>
	</g>
</g>
</svg>
